<svg id="Layer_1" data-name="Layer 1" xmlns="http://www.w3.org/2000/svg" width="256" height="256" viewBox="0 0 256 256"><title>sloth-bg</title><path d="M89,8.5A13.6,13.6,0,1,1,75.4-5.1,13.6,13.6,0,0,1,89,8.5Zm40.3-4.6-.2.4c-.9,1.5-23.2,37.5-53.6,37.5S22.7,5.9,21.8,4.3l-.2-.4a25,25,0,0,1,.3-18.4c3.6-8.7,11.7-15.6,24.2-20.7,8.4-3.4,16.3-6.2,29.1-6.7h.3c12.8.5,20.8,3.3,29.1,6.7,12.5,5,20.7,12,24.2,20.7A25,25,0,0,1,129.3,3.9Zm-14.2,6.8-8.4-4.5a9.7,9.7,0,0,1-4.3,1,9.8,9.8,0,0,1-9.8-9.8,9.8,9.8,0,0,1,9.8-9.8,9.8,9.8,0,0,1,9.8,9l9.7,5.2.6-1a17.7,17.7,0,0,0-.5-12.5c-2.8-6.7-9.6-12.2-20.1-16.5-7.7-3.1-15-5.7-26.5-6.1s-18.6,2.9-26.5,6.1C38.4-24,31.6-18.5,28.8-11.8A17.7,17.7,0,0,0,28.3.7l.6,1,9.7-5.2a9.8,9.8,0,0,1,9.8-9,9.8,9.8,0,0,1,9.8,9.8,9.8,9.8,0,0,1-9.8,9.8,9.7,9.7,0,0,1-4.3-1l-8.4,4.5c8.4,10,22.9,23.7,39.7,23.7S106.7,20.7,115.1,10.7Z" fill="#d8c2ab"/><path d="M89,264.5a13.6,13.6,0,1,1-13.6-13.6A13.6,13.6,0,0,1,89,264.5Zm40.3-4.6-.2.4c-.9,1.5-23.2,37.5-53.6,37.5s-52.7-36-53.6-37.5l-.2-.4a25,25,0,0,1,.3-18.4c3.6-8.7,11.7-15.6,24.2-20.7,8.4-3.4,16.3-6.2,29.1-6.7h.3c12.8.5,20.8,3.3,29.1,6.7,12.5,5,20.7,12,24.2,20.7A25,25,0,0,1,129.3,259.9Zm-14.2,6.8-8.4-4.5a9.8,9.8,0,1,1,5.5-9.7l9.7,5.2.6-1a17.7,17.7,0,0,0-.5-12.5c-2.8-6.7-9.6-12.2-20.1-16.5-7.7-3.1-15-5.7-26.5-6.1s-18.6,2.9-26.5,6.1c-10.5,4.2-17.3,9.8-20.1,16.5a17.7,17.7,0,0,0-.5,12.5l.6,1,9.7-5.2a9.9,9.9,0,1,1,5.5,9.7l-8.4,4.5c8.4,10,22.9,23.7,39.7,23.7S106.7,276.7,115.1,266.7Z" fill="#d8c2ab"/><path d="M194.1,136.5a13.6,13.6,0,1,1-13.6-13.6A13.6,13.6,0,0,1,194.1,136.5Zm40.3-4.6-.2.4c-.9,1.5-23.2,37.5-53.6,37.5s-52.7-36-53.6-37.5l-.2-.4a25,25,0,0,1,.3-18.4c3.6-8.7,11.7-15.6,24.2-20.7,8.4-3.4,16.3-6.2,29.1-6.7h.3c12.8.5,20.8,3.3,29.1,6.7,12.5,5,20.7,12,24.2,20.7A25,25,0,0,1,234.4,131.9Zm-14.2,6.8-8.4-4.5a9.8,9.8,0,1,1,5.5-9.7l9.7,5.2.6-1a17.7,17.7,0,0,0-.5-12.5c-2.8-6.7-9.6-12.2-20.1-16.5-7.7-3.1-15-5.7-26.5-6.1s-18.6,2.9-26.5,6.1c-10.5,4.2-17.3,9.8-20.1,16.5a17.7,17.7,0,0,0-.5,12.5l.6,1,9.7-5.2a9.9,9.9,0,1,1,5.5,9.7l-8.4,4.5c8.4,10,22.9,23.7,39.7,23.7S211.9,148.7,220.2,138.7Z" fill="#d8c2ab"/></svg>